<svg id="svg" fill="#000000" stroke="#000000" width="200px" height="200px" version="1.1" viewBox="144 144 512 512" xmlns="http://www.w3.org/2000/svg">
    <g id="IconSvg_bgCarrier" stroke-width="0"></g>
    <g id="IconSvg_tracerCarrier" stroke-linecap="round" stroke-linejoin="round" stroke="#CCCCCC"></g>
     <g id="IconSvg_iconCarrier">
      <path xmlns="http://www.w3.org/2000/svg" d="m618.15 397.98-94.211-94.211-104.29-104.8c-10.578-10.578-28.215-10.578-38.793 0l-105.3 104.79-36.777 36.777-56.934 57.438c-11.082 11.082-11.082 29.727 0 40.809l0.50391 0.50391c11.082 11.082 29.727 11.082 40.809 0l16.121-16.121v155.68c0 16.625 13.602 30.23 30.23 30.23h60.961c13.098 0 23.68-10.578 23.68-23.68v-112.86h93.203v112.85c0 13.098 10.578 23.68 23.68 23.68h59.953c16.625 0 30.23-13.602 30.23-30.23v-155.68l16.121 16.121c11.082 11.082 29.727 11.082 40.809 0l0.50391-0.50391c11.082-11.082 11.082-29.723-0.50391-40.805zm-80.105 180.87c0 4.0312-3.0234 7.0547-7.0547 7.0547l-60.961-0.003906s-0.50391 0-0.50391-0.50391v-136.03h-139.55v136.03s0 0.50391-0.50391 0.50391h-60.457c-4.0312 0-7.0547-3.0234-7.0547-7.0547v-178.34l138.04-138.04 138.04 138.04z"></path>

      </g>
      </svg>